<svg width="512" height="512" viewBox="0 0 512 512" fill="none" xmlns="http://www.w3.org/2000/svg">
<rect width="512" height="512" fill="#15213B"/>
<path fill-rule="evenodd" clip-rule="evenodd" d="M310.169 292.026H259.854C240.434 292.026 230.74 276.192 240.434 259.533L340.206 86.6042C351.71 66.4067 377.297 76.9334 373.799 102.409L357.018 220.938H412.609C432.919 220.938 441.754 237.626 432.059 253.43L332.264 423.71C319.011 446.531 293.394 432.467 296.033 412.27L310.169 292.026ZM159.224 436C149.5 436 149.5 421.08 159.224 421.08H260.742C270.466 421.08 270.466 436 260.742 436H159.224ZM138.054 347.309C127.44 347.309 127.44 332.389 138.054 332.389H239.542C249.207 332.389 249.207 347.309 239.542 347.309H138.054ZM83.2933 262.158C73.5689 262.158 73.5689 247.208 83.2933 247.208H184.811C194.506 247.208 194.506 262.158 184.811 262.158H83.2933ZM143.333 175.233C133.608 175.233 133.608 160.313 143.333 160.313H244.85C254.545 160.313 254.545 175.233 244.85 175.233H143.333ZM203.372 90.9949C193.647 90.9949 193.647 76.0458 203.372 76.0458H304.89C315.474 76.0458 315.474 90.9949 304.89 90.9949H203.372Z" fill="#FEC854"/>
</svg>
