<svg width="512" height="512" viewBox="0 0 512 512" fill="none" xmlns="http://www.w3.org/2000/svg">
<rect width="512" height="512" fill="#15213B"/>
<path fill-rule="evenodd" clip-rule="evenodd" d="M276.094 276.014H248.141C237.352 276.014 231.966 267.218 237.352 257.963L292.781 161.891C299.172 150.67 313.387 156.519 311.444 170.671L302.121 236.521H333.005C344.288 236.521 349.197 245.792 343.81 254.572L288.369 349.172C281.006 361.851 266.775 354.037 268.241 342.817L276.094 276.014ZM192.236 356C186.833 356 186.833 347.711 192.236 347.711H248.634C254.037 347.711 254.037 356 248.634 356H192.236ZM180.475 306.727C174.578 306.727 174.578 298.438 180.475 298.438H236.857C242.226 298.438 242.226 306.727 236.857 306.727H180.475ZM150.052 259.421C144.649 259.421 144.649 251.116 150.052 251.116H206.451C211.837 251.116 211.837 259.421 206.451 259.421H150.052ZM183.407 211.129C178.005 211.129 178.005 202.841 183.407 202.841H239.806C245.192 202.841 245.192 211.129 239.806 211.129H183.407ZM216.762 164.331C211.36 164.331 211.36 156.025 216.762 156.025H273.161C279.041 156.025 279.041 164.331 273.161 164.331H216.762Z" fill="#FEC854"/>
</svg>
