<svg width="800" height="326" viewBox="0 0 800 326" fill="none" xmlns="http://www.w3.org/2000/svg">
<g opacity="0.3">
<path d="M285.866 302.325C285.666 303.662 285.361 305.095 284.951 306.62C284.552 308.144 284.135 309.582 283.701 310.93C283.267 312.279 282.91 313.355 282.629 314.152H279.46C279.612 313.402 279.814 312.408 280.06 311.176C280.307 309.945 280.552 308.567 280.798 307.043C281.056 305.53 281.267 303.981 281.431 302.397L281.641 300.426H286.148L285.866 302.325Z" fill="url(#paint0_linear_114_179)"/>
<path fill-rule="evenodd" clip-rule="evenodd" d="M333.949 189.732L337.642 191.579L304.616 257.648L300.923 255.801V259.931H234.872V255.801L231.179 253.954L264.205 187.885L267.898 189.732V185.603H333.949V189.732ZM270.45 193.861L241.552 251.672H298.371L327.269 193.861H270.45Z" fill="url(#paint1_linear_114_179)"/>
<path d="M392.119 142.527H388.458L382.971 134.361H387.825L392.119 142.527Z" fill="url(#paint2_linear_114_179)"/>
<path d="M499.077 193.861L437.154 317.741H445.41L507.333 193.861H499.077Z" fill="url(#paint3_linear_114_179)"/>
<path d="M173.437 255.801L205.539 191.579L237.372 127.792H230.744H229.115L199.41 185.603L195.166 193.861L165.128 253.954L168.821 255.801L165.128 257.648L166.269 259.931L198.154 323.718L201.846 321.871V326H267.898V317.741H204.398L173.437 255.801Z" fill="url(#paint4_linear_114_179)"/>
<path d="M366.974 127.792V119.533H241.5L237.372 127.792H366.974Z" fill="url(#paint5_linear_114_179)"/>
<path d="M105.322 259.931H166.269L165.128 257.648L168.821 255.801L165.128 253.954L166.269 251.672H102.77V255.801L99.0768 253.954L67.1921 317.741H10.3729L40.4112 257.648L36.7184 255.801V251.672H3.6928V259.931H30.0383L0 320.024L3.6928 321.871V326H69.744V321.871L73.4368 323.718L105.322 259.931Z" fill="url(#paint6_linear_114_179)"/>
<path d="M3.6928 193.861H69.744V185.603H3.6928V193.861Z" fill="url(#paint7_linear_114_179)"/>
<path d="M271.59 59.4402L267.898 57.5933V53.464H3.6928V61.7226H261.217L232.32 119.533H168.821V123.663L165.128 121.816L132.102 187.885L135.795 189.732V193.861H195.166L199.41 185.603H142.475L171.373 127.792H229.115H230.744H237.372L241.5 119.533H241.552L271.59 59.4402Z" fill="url(#paint8_linear_114_179)"/>
<path d="M3.6928 127.792H102.77V119.533H3.6928V127.792Z" fill="url(#paint9_linear_114_179)"/>
<path fill-rule="evenodd" clip-rule="evenodd" d="M766.974 59.4402L763.282 57.5933V53.464H598.154V61.7226H756.602L726.563 121.816L730.256 123.663V127.792H789.627L760.73 185.603H697.23V189.732L693.538 187.885L660.512 253.954L664.205 255.801V259.931H723.576L694.679 317.741H633.731L602.77 255.801L634.872 191.579L631.179 189.732V185.603H571.808L600.706 127.792H664.205V119.533H400V127.792H426.345L360.294 259.931H369.526L373.655 251.672L402.552 193.861H499.077V185.603H406.68L435.578 127.792H591.474L528.41 253.954L532.102 255.801V259.931H591.474L562.576 317.741H437.154L433.026 326H565.128V321.871L568.821 323.718L598.154 265.036L627.486 323.718L631.179 321.871V326H697.23V321.871L700.923 323.718L733.949 257.648L730.256 255.801V251.672H670.885L699.782 193.861H763.282V189.732L766.974 191.579L800 125.51L796.307 123.663V119.533H736.936L766.974 59.4402ZM595.602 251.672H538.783L567.68 193.861H624.499L595.602 251.672Z" fill="url(#paint10_linear_114_179)"/>
<path d="M373.655 251.672L369.526 259.931L398.424 317.741H406.68L373.655 251.672Z" fill="url(#paint11_linear_114_179)"/>
<path d="M300.923 326H333.949H406.68V317.741H398.424H340.629H331.397H300.923V326Z" fill="url(#paint12_linear_114_179)"/>
</g>
<path d="M285.866 302.324C285.666 303.662 285.361 305.094 284.951 306.619C284.552 308.144 284.135 309.581 283.701 310.93C283.267 312.279 282.91 313.354 282.629 314.152H279.46C279.612 313.401 279.814 312.408 280.06 311.176C280.307 309.945 280.552 308.567 280.798 307.043C281.056 305.529 281.267 303.981 281.431 302.397L281.641 300.425H286.148L285.866 302.324Z" fill="url(#paint13_linear_114_179)"/>
<path d="M392.119 142.527H388.458L382.971 134.361H387.825L392.119 142.527Z" fill="url(#paint14_linear_114_179)"/>
<path fill-rule="evenodd" clip-rule="evenodd" d="M10.3729 317.741L40.4112 257.648L69.744 193.861L102.77 127.792L133.052 61.7222H261.217L232.32 119.533H168.821V123.662L165.128 121.815L132.102 187.885L135.795 189.732V193.861H195.166L166.269 251.672H102.77V255.801L99.0768 253.954L67.1921 317.741H10.3729Z" fill="url(#paint15_linear_114_179)"/>
<path fill-rule="evenodd" clip-rule="evenodd" d="M205.539 191.578L173.437 255.801L204.398 317.741H267.898H300.923H331.397L360.294 259.93L426.345 127.792H400H366.974H237.424L205.539 191.578ZM284.951 306.619C285.361 305.094 285.666 303.662 285.866 302.324L286.148 300.425H281.641L281.431 302.397C281.267 303.981 281.056 305.529 280.798 307.043C280.552 308.567 280.307 309.945 280.06 311.176C279.814 312.408 279.612 313.401 279.46 314.152H282.629C282.91 313.354 283.267 312.279 283.701 310.93C284.135 309.581 284.552 308.144 284.951 306.619ZM337.642 191.578L333.949 189.732V185.602H267.898V189.732L264.205 187.885L231.179 253.954L234.872 255.801V259.93H300.923V255.801L304.616 257.648L337.642 191.578ZM388.458 142.527H392.119L387.825 134.361H382.971L388.458 142.527Z" fill="url(#paint16_linear_114_179)"/>
<path d="M398.424 317.741L369.526 259.93L340.629 317.741H398.424Z" fill="url(#paint17_linear_114_179)"/>
<path d="M369.526 259.93H360.294L331.397 317.741H340.629L369.526 259.93Z" fill="url(#paint18_linear_114_179)"/>
<path fill-rule="evenodd" clip-rule="evenodd" d="M165.128 257.648L166.269 259.93H168.821V255.801L165.128 257.648Z" fill="url(#paint19_linear_114_179)"/>
<path fill-rule="evenodd" clip-rule="evenodd" d="M241.5 119.533H241.552L237.424 127.792H237.372L241.5 119.533Z" fill="url(#paint20_linear_114_179)"/>
<path d="M562.576 317.741L591.474 259.93H532.102V255.801L528.41 253.954L591.474 127.792H435.578L406.68 185.602H499.077V193.861H507.333L445.41 317.741H562.576Z" fill="url(#paint21_linear_114_179)"/>
<path d="M664.205 119.533V127.792H600.706L571.808 185.602H631.179V189.732L634.872 191.578L602.77 255.801L633.731 317.741H694.679L723.576 259.93H664.205V255.801L660.512 253.954L693.538 187.885L697.23 189.732V185.602H760.73L789.627 127.792H730.256V123.662L726.563 121.815L756.602 61.7222H693.102L664.205 119.533Z" fill="url(#paint22_linear_114_179)"/>
<defs>
<linearGradient id="paint0_linear_114_179" x1="0" y1="189.732" x2="800" y2="189.732" gradientUnits="userSpaceOnUse">
<stop stop-color="#FE442C"/>
<stop offset="1" stop-color="#FFCA04"/>
</linearGradient>
<linearGradient id="paint1_linear_114_179" x1="0" y1="189.732" x2="800" y2="189.732" gradientUnits="userSpaceOnUse">
<stop stop-color="#FE442C"/>
<stop offset="1" stop-color="#FFCA04"/>
</linearGradient>
<linearGradient id="paint2_linear_114_179" x1="0" y1="189.732" x2="800" y2="189.732" gradientUnits="userSpaceOnUse">
<stop stop-color="#FE442C"/>
<stop offset="1" stop-color="#FFCA04"/>
</linearGradient>
<linearGradient id="paint3_linear_114_179" x1="0" y1="189.732" x2="800" y2="189.732" gradientUnits="userSpaceOnUse">
<stop stop-color="#FE442C"/>
<stop offset="1" stop-color="#FFCA04"/>
</linearGradient>
<linearGradient id="paint4_linear_114_179" x1="0" y1="189.732" x2="800" y2="189.732" gradientUnits="userSpaceOnUse">
<stop stop-color="#FE442C"/>
<stop offset="1" stop-color="#FFCA04"/>
</linearGradient>
<linearGradient id="paint5_linear_114_179" x1="0" y1="189.732" x2="800" y2="189.732" gradientUnits="userSpaceOnUse">
<stop stop-color="#FE442C"/>
<stop offset="1" stop-color="#FFCA04"/>
</linearGradient>
<linearGradient id="paint6_linear_114_179" x1="0" y1="189.732" x2="800" y2="189.732" gradientUnits="userSpaceOnUse">
<stop stop-color="#FE442C"/>
<stop offset="1" stop-color="#FFCA04"/>
</linearGradient>
<linearGradient id="paint7_linear_114_179" x1="0" y1="189.732" x2="800" y2="189.732" gradientUnits="userSpaceOnUse">
<stop stop-color="#FE442C"/>
<stop offset="1" stop-color="#FFCA04"/>
</linearGradient>
<linearGradient id="paint8_linear_114_179" x1="0" y1="189.732" x2="800" y2="189.732" gradientUnits="userSpaceOnUse">
<stop stop-color="#FE442C"/>
<stop offset="1" stop-color="#FFCA04"/>
</linearGradient>
<linearGradient id="paint9_linear_114_179" x1="0" y1="189.732" x2="800" y2="189.732" gradientUnits="userSpaceOnUse">
<stop stop-color="#FE442C"/>
<stop offset="1" stop-color="#FFCA04"/>
</linearGradient>
<linearGradient id="paint10_linear_114_179" x1="0" y1="189.732" x2="800" y2="189.732" gradientUnits="userSpaceOnUse">
<stop stop-color="#FE442C"/>
<stop offset="1" stop-color="#FFCA04"/>
</linearGradient>
<linearGradient id="paint11_linear_114_179" x1="0" y1="189.732" x2="800" y2="189.732" gradientUnits="userSpaceOnUse">
<stop stop-color="#FE442C"/>
<stop offset="1" stop-color="#FFCA04"/>
</linearGradient>
<linearGradient id="paint12_linear_114_179" x1="0" y1="189.732" x2="800" y2="189.732" gradientUnits="userSpaceOnUse">
<stop stop-color="#FE442C"/>
<stop offset="1" stop-color="#FFCA04"/>
</linearGradient>
<linearGradient id="paint13_linear_114_179" x1="0" y1="163" x2="800" y2="163" gradientUnits="userSpaceOnUse">
<stop stop-color="#FE442C"/>
<stop offset="1" stop-color="#FFCA04"/>
</linearGradient>
<linearGradient id="paint14_linear_114_179" x1="0" y1="163" x2="800" y2="163" gradientUnits="userSpaceOnUse">
<stop stop-color="#FE442C"/>
<stop offset="1" stop-color="#FFCA04"/>
</linearGradient>
<linearGradient id="paint15_linear_114_179" x1="0" y1="163" x2="800" y2="163" gradientUnits="userSpaceOnUse">
<stop stop-color="#FE442C"/>
<stop offset="1" stop-color="#FFCA04"/>
</linearGradient>
<linearGradient id="paint16_linear_114_179" x1="0" y1="163" x2="800" y2="163" gradientUnits="userSpaceOnUse">
<stop stop-color="#FE442C"/>
<stop offset="1" stop-color="#FFCA04"/>
</linearGradient>
<linearGradient id="paint17_linear_114_179" x1="0" y1="163" x2="800" y2="163" gradientUnits="userSpaceOnUse">
<stop stop-color="#FE442C"/>
<stop offset="1" stop-color="#FFCA04"/>
</linearGradient>
<linearGradient id="paint18_linear_114_179" x1="0" y1="163" x2="800" y2="163" gradientUnits="userSpaceOnUse">
<stop stop-color="#FE442C"/>
<stop offset="1" stop-color="#FFCA04"/>
</linearGradient>
<linearGradient id="paint19_linear_114_179" x1="0" y1="163" x2="800" y2="163" gradientUnits="userSpaceOnUse">
<stop stop-color="#FE442C"/>
<stop offset="1" stop-color="#FFCA04"/>
</linearGradient>
<linearGradient id="paint20_linear_114_179" x1="0" y1="163" x2="800" y2="163" gradientUnits="userSpaceOnUse">
<stop stop-color="#FE442C"/>
<stop offset="1" stop-color="#FFCA04"/>
</linearGradient>
<linearGradient id="paint21_linear_114_179" x1="0" y1="163" x2="800" y2="163" gradientUnits="userSpaceOnUse">
<stop stop-color="#FE442C"/>
<stop offset="1" stop-color="#FFCA04"/>
</linearGradient>
<linearGradient id="paint22_linear_114_179" x1="0" y1="163" x2="800" y2="163" gradientUnits="userSpaceOnUse">
<stop stop-color="#FE442C"/>
<stop offset="1" stop-color="#FFCA04"/>
</linearGradient>
</defs>
</svg>
